<svg width="400" height="400" viewBox="0 0 400 400" fill="none" xmlns="http://www.w3.org/2000/svg">
<rect width="400" height="400" fill="black"/>
<path d="M78.9194 229.088V334H320.081V229.088L229.645 199.406L199.5 189.557L169.355 199.406L78.9194 229.088Z" fill="white"/>
<path d="M78.9194 228.951L139.21 209.254L169.355 199.406M78.9194 228.951L169.355 199.406M78.9194 228.951V229.088M199.5 189.557L169.355 199.406M199.5 189.557L229.645 199.406M199.5 189.557V67M169.355 199.406V141.957V113.233M169.355 199.406L78.9194 229.088M229.645 199.406L259.79 209.254L320.081 228.951V229.088M229.645 199.406V141.957V113.233M229.645 199.406L320.081 229.088M199.5 67L169.355 84.5082V113.233M199.5 67L229.645 84.5082V113.233M199.5 67L160.742 88.8852M199.5 67L238.258 88.8852M169.355 113.233H229.645M66 233.328L78.9194 229.088M333 233.328L320.081 229.088M78.9194 229.088V334H320.081V229.088" stroke="white" stroke-width="16"/>
<path d="M96.1308 245.615H115.491L112.771 270.695L98.6108 271.695L96.1308 245.615ZM102.851 266.975L109.571 265.975L111.291 250.695L100.611 251.495L102.851 266.975ZM130.097 245.655H134.937L133.337 267.015L141.337 267.895L141.377 271.095L129.617 272.055L130.097 245.655ZM159.522 249.375L150.642 249.975L149.682 256.815L159.522 257.535V260.295L150.482 261.495L151.362 267.655L159.842 267.855L160.042 270.895L146.482 271.895L144.962 245.615L160.122 245.895L159.522 249.375ZM182.497 245.975V249.215L170.617 250.935L171.697 267.375L177.657 266.815L179.657 261.015L174.537 260.175L174.097 257.375H184.097L181.937 271.375L166.857 271.935L164.177 245.575L182.497 245.975ZM204.124 246.335L205.364 271.375L203.164 271.895L200.484 263.895L193.204 264.615L191.524 271.375L189.844 271.175L188.164 245.615L204.124 246.335ZM193.204 259.735L199.764 260.015L197.564 250.895L195.084 251.135L193.204 259.735ZM209.458 243.655L228.378 253.135L227.378 265.055L210.658 273.575L209.458 243.655ZM213.698 250.535L215.378 266.935L223.058 261.695L223.498 255.895L213.698 250.535ZM231.053 245.615H250.413L247.693 270.695L233.533 271.695L231.053 245.615ZM237.773 266.975L244.493 265.975L246.213 250.695L235.533 251.495L237.773 266.975ZM264.419 243.655L283.339 253.135L282.339 265.055L265.619 273.575L264.419 243.655ZM268.659 250.535L270.339 266.935L278.019 261.695L278.459 255.895L268.659 250.535ZM302.334 249.375L293.454 249.975L292.494 256.815L302.334 257.535V260.295L293.294 261.495L294.174 267.655L302.654 267.855L302.854 270.895L289.294 271.895L287.774 245.615L302.934 245.895L302.334 249.375ZM146.809 311.735L140.489 296.775L139.489 311.975H137.169L134.649 285.615H141.249L148.329 302.375L151.409 286.095L157.689 285.615L160.009 310.975H156.889L154.049 294.215L150.849 311.215L146.809 311.735ZM180.335 286.335L181.575 311.375L179.375 311.895L176.695 303.895L169.415 304.615L167.735 311.375L166.055 311.175L164.375 285.615L180.335 286.335ZM169.415 299.735L175.975 300.015L173.775 290.895L171.295 291.135L169.415 299.735ZM201.575 311.655L191.815 296.815L190.775 311.895H188.495L185.975 285.655H192.535L200.855 302.535L202.055 286.695L204.375 286.415L205.895 311.375L201.575 311.655ZM210.232 285.615H229.592L226.872 310.695L212.712 311.695L210.232 285.615ZM216.952 306.975L223.672 305.975L225.392 290.695L214.712 291.495L216.952 306.975ZM248.311 289.375L239.431 289.975L238.471 296.815L248.311 297.535V300.295L239.271 301.495L240.151 307.655L248.631 307.855L248.831 310.895L235.271 311.895L233.751 285.615L248.911 285.895L248.311 289.375ZM253.886 285.655H258.726L257.126 307.015L265.126 307.895L265.166 311.095L253.406 312.055L253.886 285.655Z" fill="black"/>
</svg>
